<?xml version="1.0" encoding="UTF-8"?>
<svg width="31px" height="34px" viewBox="0 0 31 34" version="1.1" xmlns="http://www.w3.org/2000/svg" xmlns:xlink="http://www.w3.org/1999/xlink">
    <!-- Generator: Sketch 53.2 (72643) - https://sketchapp.com -->
    <title>logo-small-grey</title>
    <desc>Created with Sketch.</desc>
    <g id="website" stroke="none" stroke-width="1" fill="none" fill-rule="evenodd">
        <g id="logo-small-grey" fill="#4A4A4A">
            <path d="M15.5913021,1.17204461 C12.1660681,1.17204461 9.38006809,5.14825279 9.38006809,8.56773234 C9.38006809,11.9875093 12.1660681,15.9637175 15.5913021,15.9637175 C19.0165362,15.9637175 21.8025362,11.9875093 21.8025362,8.56773234 C21.8025362,5.14825279 19.0165362,1.17204461 15.5913021,1.17204461 M15.5913021,17.1354647 C10.8596,17.1354647 7.00989787,13.2918959 7.00989787,8.56773234 C7.00989787,3.84356877 10.8596,0 15.5913021,0 C20.3230043,0 24.1727064,3.84356877 24.1727064,8.56773234 C24.1727064,13.2918959 20.3230043,17.1354647 15.5913021,17.1354647" id="Fill-17"></path>
            <path d="M15.5913021,23.8606691 C9.86142979,23.8606691 4.42615319,21.6834201 0.287514894,17.7298141 C0.287514894,17.7298141 1.05453617,17.2507063 1.27883404,17.0267658 C1.50313191,16.8025279 1.92551489,16.0203717 1.92551489,16.0203717 C5.62121702,19.5504833 10.4747489,22.2910037 15.5913021,22.2910037 C20.7072596,22.2910037 25.5598979,19.5513755 29.2553021,16.0218587 C29.2553021,16.0218587 29.3824936,16.472119 29.8960255,17.0273606 C30.4095574,17.5826022 30.8933021,17.7318959 30.8933021,17.7318959 C26.7546638,21.6840149 21.3205787,23.8606691 15.5913021,23.8606691" id="Fill-19"></path>
            <path d="M28.7199064,34.0548699 C25.1007574,30.8432714 20.4384596,28.278513 15.591183,28.278513 C10.7442043,28.278513 6.08190638,30.8432714 2.46245957,34.0542751 C2.46245957,34.0542751 2.26914043,33.4145725 1.84139574,32.9875093 C1.41365106,32.5598513 0.888502128,32.2862454 0.888502128,32.2862454 C4.94194894,28.6895167 10.1633532,26.7085502 15.591183,26.7085502 C21.0193106,26.7085502 26.2410128,28.6895167 30.2938638,32.2865428 C30.2938638,32.2865428 29.7675234,32.5384387 29.3397787,32.9657993 C28.9114383,33.3931599 28.7199064,34.0548699 28.7199064,34.0548699" id="Fill-21"></path>
        </g>
    </g>
</svg>