<?xml version="1.0" encoding="UTF-8"?>
<svg width="24px" height="21px" viewBox="0 0 24 21" version="1.1" xmlns="http://www.w3.org/2000/svg" xmlns:xlink="http://www.w3.org/1999/xlink">
    <!-- Generator: Sketch 53.2 (72643) - https://sketchapp.com -->
    <title>menu</title>
    <desc>Created with Sketch.</desc>
    <g id="website" stroke="none" stroke-width="1" fill="none" fill-rule="evenodd">
        <path d="M22.5,9 C23.4,9 24,9.6 24,10.5 C24,11.4 23.4,12 22.5,12 L1.5,12 C0.6,12 5.32907052e-15,11.4 5.32907052e-15,10.5 C5.32907052e-15,9.6 0.6,9 1.5,9 L22.5,9 Z M22.5,0 C23.4,0 24,0.6 24,1.5 C24,2.4 23.4,3 22.5,3 L1.5,3 C0.6,3 5.32907052e-15,2.4 5.32907052e-15,1.5 C5.32907052e-15,0.6 0.6,0 1.5,0 L22.5,0 Z M22.5,18 C23.4,18 24,18.6 24,19.5 C24,20.4 23.4,21 22.5,21 L1.5,21 C0.6,21 5.32907052e-15,20.4 5.32907052e-15,19.5 C5.32907052e-15,18.6 0.6,18 1.5,18 L22.5,18 Z" id="menu" fill="#103324"></path>
    </g>
</svg>