<?xml version="1.0" encoding="UTF-8"?>
<svg width="140px" height="80px" viewBox="0 0 140 80" version="1.1" xmlns="http://www.w3.org/2000/svg" xmlns:xlink="http://www.w3.org/1999/xlink">
    <!-- Generator: Sketch 53.2 (72643) - https://sketchapp.com -->
    <title>logo-header</title>
    <desc>Created with Sketch.</desc>
    <g id="website" stroke="none" stroke-width="1" fill="none" fill-rule="evenodd">
        <g id="logo-header" fill="#fff">
            <path d="M0.263080851,78.9270748 C1.55316596,78.8853813 2.09410213,78.6358159 2.51022979,77.8454259 C2.80154894,77.262908 2.88465532,76.7220835 2.92635745,74.9331339 L2.92635745,70.3563772 L2.92635745,67.2776089 C2.92635745,64.7813586 2.88465532,63.9909687 2.71844255,63.3667572 C2.51022979,62.4929803 1.80278298,62.0769385 0.263080851,61.9524536 L0.263080851,61.4530249 C2.75984681,61.3696378 3.34248511,61.2448551 5.71444255,60.6626349 C5.58963404,61.7856796 5.54793191,62.1600278 5.54793191,62.7842392 L5.54793191,74.9745296 C5.54793191,78.0535957 6.13057021,78.8853813 8.21120851,78.9270748 L8.21120851,79.3431166 L0.263080851,79.3431166 L0.263080851,78.9270748 Z" id="Fill-1"></path>
            <path d="M16.0595489,60.6624265 L16.0595489,61.286638 C16.0181447,62.0770279 15.9764426,62.5347631 15.9764426,62.7426351 L16.0181447,63.907671 C16.558783,63.325153 17.0166128,62.8260221 17.3910383,62.5347631 C18.7228255,61.286638 20.7617617,60.5793373 22.7178894,60.5793373 C24.6737191,60.5793373 26.4630383,61.2449444 27.5035064,62.3682869 C28.5019745,63.4499358 28.5853787,63.907671 28.5853787,67.319094 L28.5853787,75.0160147 C28.5853787,78.1364765 29.1263149,78.8854707 31.3317617,78.9271642 L31.3317617,79.3432059 L23.3002298,79.3432059 L23.3002298,78.9271642 C24.7568255,78.8437772 25.7555915,78.0116937 25.8386979,76.6804793 L25.8804,75.5154434 L25.9221021,75.0996995 L25.9221021,67.5272637 C25.9221021,65.1141026 25.8386979,64.5732782 25.2977617,63.5750163 C24.6737191,62.3682869 23.4253362,61.6609862 21.8439319,61.6609862 C20.345634,61.6609862 18.847634,62.2432063 17.6823574,63.2834595 C16.3508681,64.5315847 15.9347404,65.5301444 15.9347404,67.69374 L15.9347404,74.184229 C15.9347404,76.3475268 15.9764426,76.9300448 16.3508681,77.6373455 C16.8086979,78.5525182 17.349634,78.8854707 18.5146128,78.9271642 L18.5146128,79.3432059 L10.6081872,79.3432059 L10.6498894,78.9271642 C12.6054213,78.8854707 13.2300596,77.9286045 13.2300596,74.9329254 L13.2300596,70.3564665 L13.2300596,65.5301444 C13.2300596,62.7009416 12.8970383,62.1601171 10.6081872,61.9522451 L10.6081872,61.4528164 C13.0632511,61.3697272 13.6875915,61.2449444 16.0595489,60.6624265" id="Fill-3"></path>
            <path d="M37.2172128,68.4841299 L37.1755106,72.4366751 C37.1755106,74.9329254 37.4668298,76.4306161 38.2990851,77.4708693 C39.0896383,78.469429 40.5879362,79.1767297 42.2524468,79.1767297 C46.2472128,79.1767297 49.1604043,75.5154434 49.1604043,70.4812493 C49.1604043,65.6135314 46.1641064,61.6606884 42.4186596,61.6606884 C40.9206596,61.6606884 39.6305745,62.2851976 38.6321064,63.4499358 C37.5499362,64.7397544 37.2172128,65.9461861 37.2172128,68.4841299 L37.2172128,68.4841299 Z M31.8489574,49.4706958 C34.3874255,49.3456152 35.0114681,49.262526 37.3420213,48.7633951 C37.3420213,49.0129606 37.3003191,49.2211303 37.3003191,49.3456152 C37.2172128,49.845044 37.2172128,50.136303 37.2172128,50.3444727 L37.2172128,64.1986322 C37.5499362,63.5747185 37.8829574,63.1172811 38.1742766,62.7426351 C39.1730426,61.5362034 40.9623617,60.8286049 42.9595957,60.8286049 C48.1199362,60.8286049 51.9898936,64.9476264 51.9898936,70.4812493 C51.9898936,75.9728808 48.0365319,80.0088131 42.5854681,80.0088131 C41.2536809,80.0088131 39.5474681,79.6758606 38.5487021,79.1767297 L37.3420213,78.5942117 C37.1341064,78.4277354 36.8427872,78.3446462 36.5928723,78.3446462 C35.8437234,78.3446462 35.3027872,78.8020836 35.0531702,79.5927714 L34.5539362,79.5510779 L34.5539362,53.631113 C34.5539362,50.7188209 34.1378085,50.1776987 31.8072553,49.9281332 L31.8489574,49.4706958 Z" id="Fill-5"></path>
            <path d="M66.0702894,68.6506359 C65.2797362,69.3579366 64.9467149,69.5658086 64.0310553,69.9404546 C63.3653106,70.2314158 62.5330553,70.5643683 61.5342894,70.9390143 C58.8296085,71.9789697 57.7891404,73.1440056 57.7891404,75.0994315 C57.7891404,77.3047206 59.4536511,79.0936702 61.5756936,79.0936702 C64.2809702,79.0936702 66.0702894,76.8883811 66.0702894,73.4769581 L66.0702894,68.6506359 Z M64.7802043,78.5942415 C63.7814383,79.4263249 62.3668426,79.9254558 60.7851404,79.9254558 C57.3730128,79.9254558 55.1258638,78.053417 55.1258638,75.1408272 C55.1258638,73.3518776 55.8750128,72.0620589 57.3313106,71.271669 C58.4965872,70.6477553 59.0375234,70.4812791 61.9921191,69.7736805 C65.3628426,68.9832906 66.0285872,68.2762877 66.0285872,65.8214331 C66.0285872,62.9091411 64.8219064,61.5359354 62.2003319,61.5359354 C60.7851404,61.5359354 59.8280766,62.1601469 59.6201617,63.324885 L59.3288426,64.5319123 C59.1623319,65.4467871 58.4548851,66.1126921 57.6226298,66.1126921 C56.7072681,66.1126921 55.9998213,65.4053914 55.9998213,64.4902188 C55.9998213,62.2435339 58.7045021,60.787239 62.6581617,60.787239 C64.6970979,60.787239 66.0702894,61.161885 67.193566,61.9936706 C68.4836511,62.8674476 68.733566,63.7412245 68.733566,66.3622576 L68.733566,75.9732084 C68.733566,77.3047206 68.7752681,77.7204645 69.1082894,78.261289 C69.3579064,78.7190242 69.8988426,79.0936702 70.4397787,79.0936702 C71.272034,79.0936702 71.8963745,78.635935 72.520417,77.6373753 L73.0196511,77.762158 C72.3125021,79.3015422 71.272034,79.9671494 69.6075234,79.9671494 C67.6513957,79.9671494 66.3616085,79.0102832 65.987183,77.3461163 C65.5293532,77.8452473 65.1546298,78.261289 64.7802043,78.5942415 L64.7802043,78.5942415 Z" id="Fill-7"></path>
            <path d="M74.5674553,78.9270748 C76.6897957,78.8853813 77.1890298,78.2197741 77.272434,74.9331339 L77.272434,69.7321657 L77.272434,53.6310236 C77.272434,50.8021186 76.8563064,50.2612942 74.5674553,49.9700352 L74.5674553,49.4706064 C77.1059234,49.3875172 77.729966,49.3041302 80.0605191,48.7633057 C79.9357106,50.0114309 79.8940085,50.3443834 79.8940085,50.9269014 L79.8940085,74.9745296 C79.8940085,78.0119022 80.5183489,78.8853813 82.5572851,78.9270748 L82.6403915,79.3431166 L74.5260511,79.3431166 L74.5674553,78.9270748 Z" id="Fill-9"></path>
            <path d="M95.5902128,68.6506359 C94.7996596,69.3579366 94.4666383,69.5658086 93.5509787,69.9404546 C92.8855319,70.2314158 92.0529787,70.5643683 91.0542128,70.9390143 C88.3495319,71.9789697 87.3090638,73.1440056 87.3090638,75.0994315 C87.3090638,77.3047206 88.9735745,79.0936702 91.0959149,79.0936702 C93.8008936,79.0936702 95.5902128,76.8883811 95.5902128,73.4769581 L95.5902128,68.6506359 Z M94.3001277,78.5942415 C93.3013617,79.4263249 91.8864681,79.9254558 90.3053617,79.9254558 C86.8929362,79.9254558 84.6454894,78.053417 84.6454894,75.1408272 C84.6454894,73.3518776 85.3946383,72.0620589 86.851234,71.271669 C88.0162128,70.6477553 88.5574468,70.4812791 91.5120426,69.7736805 C94.882766,68.9832906 95.5485106,68.2762877 95.5485106,65.8214331 C95.5485106,62.9091411 94.3418298,61.5359354 91.7202553,61.5359354 C90.3053617,61.5359354 89.3482979,62.1601469 89.1400851,63.324885 L88.848766,64.5319123 C88.6822553,65.4467871 87.9748085,66.1126921 87.1425532,66.1126921 C86.2271915,66.1126921 85.5197447,65.4053914 85.5197447,64.4902188 C85.5197447,62.2435339 88.2244255,60.787239 92.1780851,60.787239 C94.2170213,60.787239 95.5902128,61.161885 96.7137872,61.9936706 C98.0038723,62.8674476 98.2534894,63.7412245 98.2534894,66.3622576 L98.2534894,75.9732084 C98.2534894,77.3047206 98.2951915,77.7204645 98.6279149,78.261289 C98.8778298,78.7190242 99.418766,79.0936702 99.9594043,79.0936702 C100.791957,79.0936702 101.416,78.635935 102.04034,77.6373753 L102.539574,77.762158 C101.832426,79.3015422 100.791957,79.9671494 99.1274468,79.9671494 C97.1713191,79.9671494 95.8815319,79.0102832 95.5071064,77.3461163 C95.0492766,77.8452473 94.6748511,78.261289 94.3001277,78.5942415 L94.3001277,78.5942415 Z" id="Fill-11"></path>
            <path d="M109.646957,60.6624265 L109.646957,61.286638 C109.605255,62.0770279 109.563851,62.5347631 109.563851,62.7426351 L109.605255,63.907671 C110.146191,63.325153 110.604021,62.8260221 110.978447,62.5347631 C112.310234,61.286638 114.34917,60.5793373 116.305,60.5793373 C118.261128,60.5793373 120.050447,61.2449444 121.090617,62.3682869 C122.089681,63.4499358 122.172787,63.907671 122.172787,67.319094 L122.172787,75.0160147 C122.172787,78.1364765 122.713426,78.8854707 124.91917,78.9271642 L124.91917,79.3432059 L116.887638,79.3432059 L116.887638,78.9271642 C118.344234,78.8437772 119.343,78.0116937 119.426106,76.6804793 L119.467809,75.5154434 L119.509511,75.0996995 L119.509511,67.5272637 C119.509511,65.1141026 119.426106,64.5732782 118.88517,63.5750163 C118.261128,62.3682869 117.012745,61.6609862 115.43134,61.6609862 C113.93334,61.6609862 112.435043,62.2432063 111.269766,63.2834595 C109.938277,64.5315847 109.522149,65.5301444 109.522149,67.69374 L109.522149,74.184229 C109.522149,76.3475268 109.563851,76.9300448 109.938277,77.6373455 C110.396106,78.5525182 110.937043,78.8854707 112.102021,78.9271642 L112.102021,79.3432059 L104.195596,79.3432059 L104.237,78.9271642 C106.193128,78.8854707 106.81717,77.9286045 106.81717,74.9329254 L106.81717,70.3564665 L106.81717,65.5301444 C106.81717,62.7009416 106.484149,62.1601171 104.195596,61.9522451 L104.195596,61.4528164 C106.65066,61.3697272 107.275,61.2449444 109.646957,60.6624265" id="Fill-13"></path>
            <path d="M127.469643,73.5600176 C127.844068,75.1410952 128.051983,75.6816219 128.385004,76.3475268 C129.38377,78.0950808 131.423004,79.2598189 133.46194,79.2598189 C135.792494,79.2598189 137.332196,77.9286045 137.332196,76.0148722 C137.332196,75.0994017 136.916068,74.2256247 136.125217,73.4352348 C135.542579,72.8527169 135.126749,72.5197644 133.254026,71.2716392 C130.549047,69.4412939 129.883302,68.9835587 129.21726,68.276258 C128.593217,67.610353 128.218791,66.6120911 128.218791,65.5718379 C128.218791,62.7843286 130.340834,60.7872092 133.29543,60.7872092 C134.252791,60.7872092 135.251557,60.995379 136.042111,61.4111229 L136.624749,61.6606884 C136.874366,61.7440754 137.082579,61.8274624 137.248791,61.8274624 C137.748026,61.8274624 138.039345,61.5362034 138.039345,60.8286049 L138.497174,60.8286049 L138.788494,66.6120911 L138.330962,66.6534868 C138.122749,65.2805789 137.997643,64.781448 137.623515,64.0324537 C136.957472,62.5761588 135.292962,61.5362034 133.628451,61.5362034 C131.714323,61.5362034 130.46594,62.7009416 130.46594,64.3651084 C130.46594,65.3222724 130.88177,66.1957515 131.589217,66.819963 C132.25526,67.4441745 133.669855,68.4010407 135.292962,69.5240853 C136.125217,70.0652076 136.707855,70.4812493 136.999174,70.6477255 C137.457004,70.980678 137.83143,71.3547284 138.28926,71.7710679 C139.246323,72.7279341 139.704153,73.7264938 139.704153,74.9329254 C139.704153,77.886911 137.165685,80.0085153 133.711855,80.0085153 C132.42177,80.0085153 131.839132,79.8840304 129.925004,78.9685599 C129.467174,78.8020836 129.175855,78.6775987 128.884536,78.6775987 C128.177089,78.6775987 127.844068,79.0936404 127.802366,79.9671196 L127.42794,79.9671196 L127.053515,73.5600176 L127.469643,73.5600176 Z" id="Fill-15"></path>
            <path d="M68.854383,1.35834494 C65.4291489,1.35834494 62.6431489,5.34007563 62.6431489,8.76430446 C62.6431489,12.1888311 65.4291489,16.1705618 68.854383,16.1705618 C72.279617,16.1705618 75.065617,12.1888311 75.065617,8.76430446 C75.065617,5.34007563 72.279617,1.35834494 68.854383,1.35834494 M68.854383,17.3439364 C64.1226809,17.3439364 60.2729787,13.4950294 60.2729787,8.76430446 C60.2729787,4.03357955 64.1226809,0.184672491 68.854383,0.184672491 C73.5860851,0.184672491 77.4357872,4.03357955 77.4357872,8.76430446 C77.4357872,13.4950294 73.5860851,17.3439364 68.854383,17.3439364" id="Fill-17"></path>
            <path d="M68.854383,24.0784815 C63.1245106,24.0784815 57.689234,21.8982084 53.5505957,17.9391114 C53.5505957,17.9391114 54.317617,17.4593381 54.5419149,17.2350866 C54.7662128,17.0105372 55.1885957,16.2272948 55.1885957,16.2272948 C58.8842979,19.7623092 63.7378298,22.5066359 68.854383,22.5066359 C73.9703404,22.5066359 78.8229787,19.7632026 82.518383,16.2287838 C82.518383,16.2287838 82.6455745,16.6796694 83.1591064,17.2356822 C83.6726383,17.791695 84.156383,17.941196 84.156383,17.941196 C80.0177447,21.898804 74.5836596,24.0784815 68.854383,24.0784815" id="Fill-19"></path>
            <path d="M81.9829872,34.2868408 C78.3638383,31.0707817 73.7015404,28.5024612 68.8542638,28.5024612 C64.0072851,28.5024612 59.3449872,31.0707817 55.7255404,34.2862452 C55.7255404,34.2862452 55.5322213,33.6456541 55.1044766,33.2179978 C54.6767319,32.7897458 54.151583,32.5157599 54.151583,32.5157599 C58.2050298,28.9140358 63.426434,26.9303179 68.8542638,26.9303179 C74.2823915,26.9303179 79.5040936,28.9140358 83.5569447,32.5160577 C83.5569447,32.5160577 83.0306043,32.7683034 82.6028596,33.1962576 C82.1745191,33.6242117 81.9829872,34.2868408 81.9829872,34.2868408" id="Fill-21"></path>
        </g>
    </g>
</svg>